<svg width="34" height="34" viewBox="0 0 34 34" fill="none" xmlns="http://www.w3.org/2000/svg">
<g id="happy-face">
<path id="Oval" d="M10.3432 19.835C11.4374 22.3236 14.1499 24.0833 16.9994 24.0833C19.8369 24.0833 22.5441 22.319 23.6477 19.8412" stroke="#F6F8FA" stroke-width="2" stroke-linecap="round"/>
<path id="Oval_2" fill-rule="evenodd" clip-rule="evenodd" d="M12.75 14.1667C13.5324 14.1667 14.1666 13.5324 14.1666 12.75C14.1666 11.9676 13.5324 11.3333 12.75 11.3333C11.9676 11.3333 11.3333 11.9676 11.3333 12.75C11.3333 13.5324 11.9676 14.1667 12.75 14.1667Z" fill="#F6F8FA"/>
<path id="Oval_3" fill-rule="evenodd" clip-rule="evenodd" d="M21.25 14.1667C22.0324 14.1667 22.6666 13.5324 22.6666 12.75C22.6666 11.9676 22.0324 11.3333 21.25 11.3333C20.4676 11.3333 19.8333 11.9676 19.8333 12.75C19.8333 13.5324 20.4676 14.1667 21.25 14.1667Z" fill="#F6F8FA"/>
<path id="Oval_4" fill-rule="evenodd" clip-rule="evenodd" d="M17 31.1667C24.824 31.1667 31.1666 24.824 31.1666 17C31.1666 9.17598 24.824 2.83334 17 2.83334C9.17595 2.83334 2.83331 9.17598 2.83331 17C2.83331 24.824 9.17595 31.1667 17 31.1667Z" stroke="#F6F8FA" stroke-width="2"/>
</g>
</svg>
